<?xml version="1.0" encoding="UTF-8"?>
<svg id="Layer_1" data-name="Layer 1" xmlns="http://www.w3.org/2000/svg" viewBox="0 0 335.93 918.96">
  <defs>
    <style>
      .cls-1 {
        fill: #231f20;
      }
    </style>
  </defs>
  <path class="cls-1"
    d="M82.58,536.18c-5.29,140.27-94.8,375.62-55.58,382.44,60.87,10.59,109.84-230.26,127.81-308.34,17.97-78.07,30.38-60.97,32.31-43.67,1.19,10.58-1.81,86.64-2.56,165.37-.87,90.12-29.75,186.98,15.8,186.64,33.47-.25,71.46-247.46,84.69-363.92,13.23-116.45-63.52-259.37-46.32-262.02,8.41-1.29,22.39,3.96,37.06,62.2,4.31,17.13,22.37,87.6,19.85,104.6-5.3,35.67,15.42,73.02,25.14,79.34,6.75,4.39,30.42-50.13-.02-179.82-30.44-129.68-82.03-197.33-148.19-206.59-66.17-9.26-43.67-64.84-41.03-78.08,2.65-13.23-11.91-89.98-82.04-71.46C-20.64,21.4,11.12,137.85,41.54,157.7c30.43,19.85,7.96,19.85-23.67,52.94C-13.76,243.72-.79,516.33,36.26,582.49c37.06,66.17,34.41-37.05,14.56-78.07-19.85-41.03-.59-166.74-.59-166.74,0,0,37.64,58.22,32.35,198.5Z" />
</svg>