<?xml version="1.0" encoding="UTF-8"?>
<svg id="Layer_1" data-name="Layer 1" xmlns="http://www.w3.org/2000/svg" viewBox="0 0 335.93 918.96">
  <defs>
    <style>
      .cls-1 {
        fill: #231f20;
      }
    </style>
  </defs>
  <path
    d="M285.69,337.68s19.26,125.71-.59,166.74c-19.85,41.02-22.5,144.24,14.56,78.07,37.05-66.16,50.02-338.77,18.39-371.85-31.63-33.09-54.1-33.09-23.67-52.94,30.42-19.85,62.18-136.3-7.96-154.83-70.13-18.52-84.69,58.23-82.04,71.46,2.64,13.24,25.14,68.82-41.03,78.08-66.16,9.26-117.75,76.91-148.19,206.59-30.44,129.69-6.77,184.21-.02,179.82,9.72-6.32,30.44-43.67,25.14-79.34-2.52-17,15.54-87.47,19.85-104.6,14.67-58.24,28.65-63.49,37.06-62.2,17.2,2.65-59.55,145.57-46.32,262.02,13.23,116.46,51.22,363.67,84.69,363.92,45.55.34,16.67-96.52,15.8-186.64-.75-78.73-3.75-154.79-2.56-165.37,1.93-17.3,14.34-34.4,32.31,43.67,17.97,78.08,66.94,318.93,127.81,308.34,39.22-6.82-50.29-242.17-55.58-382.44-5.29-140.28,32.35-198.5,32.35-198.5ZM297.75,67.51c1.78-10.86,23.42-8.71,21.41,3.51-2,12.22-23.85,11.42-21.41-3.51ZM249.84,56.61c2.03-12.34,27.86-9.69,25.59,4.19-2.28,13.88-28.36,12.77-25.59-4.19Z" />
</svg>