<?xml version="1.0" encoding="UTF-8"?>
<svg id="Layer_1" data-name="Layer 1" xmlns="http://www.w3.org/2000/svg" viewBox="0 0 426.21 827.36">
  <defs>
    <style>
      .cls-1 {
        fill: #231f20;
      }
    </style>
  </defs>
  <path class="cls-1"
    d="M69.81,335.18C26.43,285.89-52.95,148.06,51.85,47.75c104.79-100.3,222.88-13.32,235.68-1.46,33.01,30.58,35.28,55.35,59.23,56.85,23.95,1.5,82.26,7.94,79.34,64.28-2.92,56.33-26.95,67.46-61.38,68.96-34.43,1.5-101.8-61.38-101.8-61.38,0,0-26.16,16-39.93,30.88-13.93,15.04-34.92,49.96-28.93,54.45,5.99,4.49,44.91,19.46,44.91,50.9s-32.93,31.44-32.93,31.44c0,0,46.41,104.79,14.97,200.6-31.44,95.81-59.88,232.04-37.43,230.54,22.46-1.5,154.19,62.87-2.99,52.4-157.19-10.48-106.29-19.46-103.29-80.84,3.62-74.24,91.32-297.91-7.49-410.18Z" />
</svg>